<svg width="290" height="69" viewBox="0 0 290 69" fill="none" xmlns="http://www.w3.org/2000/svg">
<path d="M91.8392 42.632C93.6952 42.632 95.0392 42.264 95.8712 41.528C96.7352 40.792 97.1672 39.896 97.1672 38.84C97.1672 37.88 96.8312 37.096 96.1592 36.488C95.4872 35.88 94.4792 35.368 93.1352 34.952L90.0632 33.992C88.4632 33.48 87.0552 32.872 85.8392 32.168C84.6232 31.464 83.6792 30.584 83.0072 29.528C82.3352 28.472 81.9992 27.144 81.9992 25.544C81.9992 22.952 82.9752 20.904 84.9272 19.4C86.8792 17.864 89.5512 17.096 92.9432 17.096C94.7352 17.096 96.3352 17.272 97.7432 17.624C99.1512 17.976 100.255 18.488 101.055 19.16C101.855 19.8 102.255 20.568 102.255 21.464C102.255 22.072 102.095 22.616 101.775 23.096C101.487 23.576 101.119 23.976 100.671 24.296C99.9032 23.752 98.8792 23.272 97.5992 22.856C96.3512 22.44 94.9752 22.232 93.4712 22.232C91.8392 22.232 90.5912 22.536 89.7272 23.144C88.8632 23.752 88.4312 24.552 88.4312 25.544C88.4312 26.312 88.7192 26.952 89.2952 27.464C89.9032 27.944 90.8472 28.376 92.1272 28.76L94.8152 29.624C97.6312 30.456 99.7912 31.592 101.295 33.032C102.831 34.472 103.599 36.424 103.599 38.888C103.599 41.512 102.591 43.656 100.575 45.32C98.5912 46.952 95.7272 47.768 91.9832 47.768C90.0312 47.768 88.2872 47.544 86.7512 47.096C85.2472 46.68 84.0632 46.104 83.1992 45.368C82.3352 44.6 81.9032 43.768 81.9032 42.872C81.9032 42.104 82.1112 41.464 82.5272 40.952C82.9752 40.44 83.4872 40.056 84.0632 39.8C84.8632 40.504 85.9192 41.16 87.2312 41.768C88.5752 42.344 90.1112 42.632 91.8392 42.632ZM111.056 38.696L110.816 34.424L123.536 32.552C123.44 31.368 122.976 30.344 122.144 29.48C121.312 28.584 120.128 28.136 118.592 28.136C116.96 28.136 115.616 28.696 114.56 29.816C113.504 30.936 112.96 32.536 112.928 34.616L113.072 37.208C113.328 39.192 114.096 40.664 115.376 41.624C116.688 42.552 118.32 43.016 120.272 43.016C121.616 43.016 122.864 42.824 124.016 42.44C125.168 42.024 126.096 41.592 126.8 41.144C127.216 41.4 127.568 41.752 127.856 42.2C128.144 42.648 128.288 43.128 128.288 43.64C128.288 44.472 127.92 45.208 127.184 45.848C126.448 46.456 125.44 46.92 124.16 47.24C122.912 47.56 121.488 47.72 119.888 47.72C117.392 47.72 115.184 47.256 113.264 46.328C111.376 45.4 109.888 44.024 108.8 42.2C107.744 40.344 107.216 38.072 107.216 35.384C107.216 33.4 107.52 31.672 108.128 30.2C108.736 28.696 109.568 27.464 110.624 26.504C111.68 25.512 112.88 24.776 114.224 24.296C115.6 23.784 117.056 23.528 118.592 23.528C120.704 23.528 122.56 23.96 124.16 24.824C125.76 25.688 127.008 26.872 127.904 28.376C128.8 29.88 129.248 31.608 129.248 33.56C129.248 34.456 129.008 35.128 128.528 35.576C128.08 36.024 127.44 36.312 126.608 36.44L111.056 38.696ZM145.447 28.424C143.591 28.424 142.007 29.048 140.695 30.296C139.383 31.544 138.727 33.336 138.727 35.672C138.727 38.008 139.351 39.784 140.599 41C141.879 42.216 143.495 42.824 145.447 42.824C146.567 42.824 147.543 42.68 148.375 42.392C149.207 42.072 149.927 41.72 150.535 41.336C151.015 41.688 151.383 42.072 151.639 42.488C151.895 42.872 152.023 43.352 152.023 43.928C152.023 45.016 151.383 45.912 150.103 46.616C148.823 47.32 147.095 47.672 144.919 47.672C142.487 47.672 140.327 47.224 138.439 46.328C136.583 45.432 135.143 44.104 134.119 42.344C133.095 40.552 132.583 38.328 132.583 35.672C132.583 32.984 133.127 30.744 134.215 28.952C135.335 27.16 136.823 25.816 138.679 24.92C140.535 23.992 142.551 23.528 144.727 23.528C146.871 23.528 148.583 23.912 149.863 24.68C151.143 25.448 151.783 26.376 151.783 27.464C151.783 27.976 151.655 28.44 151.399 28.856C151.143 29.24 150.823 29.576 150.439 29.864C149.831 29.512 149.111 29.192 148.279 28.904C147.479 28.584 146.535 28.424 145.447 28.424ZM156.617 38.312V34.568H162.713V38.216C162.713 39.848 163.145 41.032 164.009 41.768C164.873 42.504 166.073 42.872 167.609 42.872C168.601 42.872 169.433 42.776 170.105 42.584C170.777 42.36 171.305 42.152 171.689 41.96V34.568H177.785V42.536C177.785 43.272 177.641 43.896 177.353 44.408C177.097 44.888 176.633 45.32 175.961 45.704C175.065 46.28 173.897 46.76 172.457 47.144C171.017 47.528 169.385 47.72 167.561 47.72C165.353 47.72 163.417 47.384 161.753 46.712C160.121 46.04 158.857 45.016 157.961 43.64C157.065 42.264 156.617 40.488 156.617 38.312ZM177.785 36.824H171.689V24.344C171.945 24.248 172.313 24.152 172.793 24.056C173.305 23.96 173.849 23.912 174.425 23.912C175.609 23.912 176.457 24.12 176.969 24.536C177.513 24.952 177.785 25.704 177.785 26.792V36.824ZM162.713 36.824H156.617V24.344C156.873 24.248 157.257 24.152 157.769 24.056C158.281 23.96 158.825 23.912 159.401 23.912C160.553 23.912 161.385 24.12 161.897 24.536C162.441 24.952 162.713 25.704 162.713 26.792V36.824ZM189.628 29.768V36.248H183.532V29.288C183.532 28.424 183.724 27.72 184.108 27.176C184.492 26.6 185.052 26.088 185.788 25.64C186.78 25 188.012 24.504 189.484 24.152C190.956 23.768 192.524 23.576 194.188 23.576C197.228 23.576 198.748 24.52 198.748 26.408C198.748 26.856 198.684 27.288 198.556 27.704C198.428 28.088 198.268 28.408 198.076 28.664C197.756 28.6 197.356 28.552 196.876 28.52C196.396 28.456 195.9 28.424 195.388 28.424C194.268 28.424 193.196 28.552 192.172 28.808C191.18 29.064 190.332 29.384 189.628 29.768ZM183.532 34.328L189.628 34.616V46.952C189.372 47.016 188.988 47.096 188.476 47.192C187.996 47.288 187.468 47.336 186.892 47.336C185.74 47.336 184.892 47.128 184.348 46.712C183.804 46.296 183.532 45.56 183.532 44.504V34.328ZM225.136 21.608C225.136 22.216 224.96 22.776 224.608 23.288C224.256 23.768 223.856 24.136 223.408 24.392C222.608 23.816 221.68 23.304 220.624 22.856C219.6 22.408 218.336 22.184 216.832 22.184C215.04 22.184 213.472 22.584 212.128 23.384C210.816 24.184 209.776 25.352 209.008 26.888C208.272 28.392 207.904 30.248 207.904 32.456C207.904 35.816 208.736 38.36 210.4 40.088C212.064 41.784 214.304 42.632 217.12 42.632C218.592 42.632 219.856 42.424 220.912 42.008C222 41.592 222.96 41.128 223.792 40.616C224.24 40.904 224.608 41.288 224.896 41.768C225.184 42.248 225.328 42.824 225.328 43.496C225.328 44.008 225.184 44.504 224.896 44.984C224.608 45.432 224.128 45.832 223.456 46.184C222.816 46.568 221.904 46.92 220.72 47.24C219.568 47.592 218.128 47.768 216.4 47.768C213.616 47.768 211.088 47.208 208.816 46.088C206.576 44.968 204.784 43.288 203.44 41.048C202.128 38.776 201.472 35.912 201.472 32.456C201.472 29.128 202.128 26.328 203.44 24.056C204.784 21.752 206.56 20.024 208.768 18.872C210.976 17.688 213.408 17.096 216.064 17.096C217.92 17.096 219.52 17.304 220.864 17.72C222.24 18.136 223.296 18.696 224.032 19.4C224.768 20.072 225.136 20.808 225.136 21.608ZM229.621 17.48C229.621 16.52 229.941 15.72 230.581 15.08C231.253 14.408 232.101 14.072 233.125 14.072C234.149 14.072 234.981 14.408 235.621 15.08C236.293 15.72 236.629 16.52 236.629 17.48C236.629 18.44 236.293 19.256 235.621 19.928C234.981 20.568 234.149 20.888 233.125 20.888C232.101 20.888 231.253 20.568 230.581 19.928C229.941 19.256 229.621 18.44 229.621 17.48ZM230.101 34.328H236.149V46.952C235.893 47.016 235.509 47.096 234.997 47.192C234.517 47.288 233.989 47.336 233.413 47.336C232.261 47.336 231.413 47.128 230.869 46.712C230.357 46.296 230.101 45.56 230.101 44.504V34.328ZM236.149 37.448H230.101V24.44C230.357 24.376 230.725 24.296 231.205 24.2C231.717 24.104 232.261 24.056 232.837 24.056C233.989 24.056 234.821 24.264 235.333 24.68C235.877 25.064 236.149 25.8 236.149 26.888V37.448ZM242.199 34.328H248.199V39.944C248.199 40.968 248.519 41.704 249.159 42.152C249.799 42.6 250.663 42.824 251.751 42.824C252.263 42.824 252.807 42.76 253.383 42.632C253.991 42.472 254.503 42.296 254.919 42.104C255.175 42.36 255.383 42.68 255.543 43.064C255.735 43.448 255.831 43.88 255.831 44.36C255.831 45.32 255.399 46.12 254.535 46.76C253.671 47.368 252.279 47.672 250.359 47.672C247.831 47.672 245.831 47.112 244.359 45.992C242.919 44.84 242.199 42.952 242.199 40.328V34.328ZM245.847 29.48V24.728H255.255C255.415 24.952 255.559 25.272 255.687 25.688C255.815 26.104 255.879 26.568 255.879 27.08C255.879 27.912 255.687 28.52 255.303 28.904C254.951 29.288 254.439 29.48 253.767 29.48H245.847ZM248.199 35.624H242.199V18.296C242.455 18.232 242.823 18.152 243.303 18.056C243.815 17.96 244.359 17.912 244.935 17.912C246.055 17.912 246.871 18.12 247.383 18.536C247.927 18.952 248.199 19.688 248.199 20.744V35.624ZM264.426 41.528C263.914 40.472 263.322 39.16 262.65 37.592C262.01 35.992 261.338 34.168 260.634 32.12C259.93 30.04 259.226 27.72 258.522 25.16C258.842 24.776 259.29 24.456 259.866 24.2C260.442 23.912 261.066 23.768 261.738 23.768C262.57 23.768 263.258 23.96 263.802 24.344C264.378 24.728 264.81 25.416 265.098 26.408C265.866 28.84 266.666 31.272 267.498 33.704C268.362 36.104 269.258 38.552 270.186 41.048H270.378C270.954 39.64 271.546 38.008 272.154 36.152C272.794 34.264 273.386 32.312 273.93 30.296C274.474 28.248 274.922 26.296 275.274 24.44C275.658 24.248 276.058 24.088 276.474 23.96C276.922 23.832 277.386 23.768 277.866 23.768C278.73 23.768 279.45 23.96 280.026 24.344C280.634 24.728 280.938 25.352 280.938 26.216C280.938 26.984 280.794 28.008 280.506 29.288C280.25 30.568 279.882 31.992 279.402 33.56C278.954 35.096 278.426 36.68 277.818 38.312C277.21 39.944 276.554 41.544 275.85 43.112C275.146 44.648 274.442 46.04 273.738 47.288C272.106 50.2 270.602 52.392 269.226 53.864C267.85 55.336 266.506 56.072 265.194 56.072C264.17 56.072 263.338 55.768 262.698 55.16C262.058 54.584 261.674 53.832 261.546 52.904C262.218 52.328 262.938 51.624 263.706 50.792C264.506 49.96 265.258 49.064 265.962 48.104C266.698 47.144 267.322 46.232 267.834 45.368C267.29 45.208 266.746 44.872 266.202 44.36C265.658 43.848 265.066 42.904 264.426 41.528Z" fill="#92E3A9"/>
<path fill-rule="evenodd" clip-rule="evenodd" d="M34.5 69C53.5538 69 69 53.5538 69 34.5C69 15.4462 53.5538 0 34.5 0C15.4462 0 0 15.4462 0 34.5C0 53.5538 15.4462 69 34.5 69ZM37.6398 62.4715C50.6749 61.0246 61.0243 50.6752 62.4713 37.6401C62.3058 37.6648 62.1364 37.6776 61.9641 37.6776H58.7864C56.9061 37.6776 55.3818 36.1533 55.3818 34.273C55.3818 32.3927 56.9061 30.8684 58.7864 30.8684H61.9641C62.1174 30.8684 62.2683 30.8786 62.4162 30.8982C60.7789 18.081 50.5206 7.95831 37.6398 6.52846C37.6646 6.6941 37.6774 6.86364 37.6774 7.03619V10.2138C37.6774 12.0941 36.1531 13.6184 34.2728 13.6184C32.3925 13.6184 30.8682 12.0941 30.8682 10.2138V7.03618C30.8682 6.88273 30.8783 6.73165 30.898 6.58357C18.2344 8.20124 8.20096 18.2347 6.58334 30.8983C6.73157 30.8786 6.88281 30.8684 7.03643 30.8684H10.2141C12.0944 30.8684 13.6187 32.3927 13.6187 34.273C13.6187 36.1533 12.0944 37.6776 10.2141 37.6776H7.03643C6.86373 37.6776 6.69402 37.6648 6.52823 37.64C7.95807 50.5208 18.0808 60.7792 30.898 62.4164C30.8783 62.2684 30.8682 62.1173 30.8682 61.9638V58.7862C30.8682 56.9059 32.3925 55.3816 34.2728 55.3816C36.1531 55.3816 37.6774 56.9059 37.6774 58.7862V61.9638C37.6774 62.1364 37.6646 62.3059 37.6398 62.4715ZM28.8905 25.6825C27.6828 25.8635 26.5948 26.6495 26.0827 27.856L18.669 45.3216C17.8853 47.1678 18.7467 49.2998 20.5929 50.0834C21.6561 50.5347 22.8141 50.4405 23.7547 49.9267C23.8303 49.9047 23.9054 49.8781 23.9796 49.8465L39.9139 43.0828C41.1594 42.9297 42.2913 42.1345 42.8169 40.8964L50.2306 23.4308C51.0143 21.5846 50.1529 19.4526 48.3067 18.6689C47.3641 18.2688 46.3471 18.2975 45.473 18.6671C45.3789 18.6916 45.2854 18.7233 45.1931 18.7625L28.8905 25.6825ZM31.7918 32.9949L29.2072 39.0837L37.122 35.7241L39.7066 29.6352L31.7918 32.9949Z" fill="#92E3A9"/>
</svg>
